<?xml version="1.0" standalone="no"?>
<!DOCTYPE svg PUBLIC "-//W3C//DTD SVG 20010904//EN"
 "http://www.w3.org/TR/2001/REC-SVG-20010904/DTD/svg10.dtd">
<svg version="1.0" xmlns="http://www.w3.org/2000/svg"
 width="240.000000pt" height="240.000000pt" viewBox="0 0 240.000000 240.000000"
 preserveAspectRatio="xMidYMid meet">
<metadata>
Created by potrace 1.11, written by Peter Selinger 2001-2013
</metadata>
<g transform="translate(0.000000,240.000000) scale(0.100000,-0.100000)"
fill="#000000" stroke="none">
<path d="M986 2384 c-498 -88 -898 -498 -975 -999 -14 -88 -11 -308 5 -400 45
-257 193 -517 399 -694 165 -143 383 -245 600 -280 33 -6 132 -9 220 -7 131 3
177 8 256 29 438 115 761 438 876 876 21 80 26 123 28 261 4 182 -8 271 -52
405 -97 298 -326 562 -608 703 -87 44 -227 90 -320 106 -103 18 -328 17 -429
0z m395 -204 c128 -24 258 -78 374 -155 301 -200 476 -571 435 -926 -26 -224
-136 -456 -287 -604 -117 -115 -240 -188 -412 -245 -86 -29 -274 -54 -336 -45
-16 2 -59 6 -94 10 -184 18 -420 136 -563 282 -149 150 -262 375 -283 563 -3
25 -8 64 -11 87 -8 62 14 233 42 329 111 383 443 665 839 714 78 9 217 5 296
-10z"/>
<path d="M720 1784 c-103 -45 -149 -166 -101 -269 75 -162 315 -149 371 21 7
20 10 61 8 90 -11 128 -156 211 -278 158z"/>
<path d="M1515 1783 c-73 -38 -115 -104 -115 -180 1 -115 87 -203 200 -203
110 0 199 88 200 198 0 115 -87 202 -202 202 -29 -1 -66 -8 -83 -17z"/>
<path d="M674 1039 c-35 -17 -57 -65 -49 -107 10 -52 68 -165 113 -218 68 -82
174 -154 282 -190 78 -27 282 -27 360 0 184 63 324 198 385 372 21 60 15 95
-22 130 -36 33 -91 33 -132 -2 -17 -14 -31 -30 -31 -36 0 -25 -58 -123 -97
-162 -100 -102 -226 -140 -363 -112 -129 27 -224 104 -284 230 -19 41 -45 81
-58 90 -25 18 -72 20 -104 5z"/>
</g>
</svg>
